<?xml version="1.0" standalone="no"?>
<!DOCTYPE svg PUBLIC "-//W3C//DTD SVG 20010904//EN"
 "http://www.w3.org/TR/2001/REC-SVG-20010904/DTD/svg10.dtd">
<svg version="1.0" xmlns="http://www.w3.org/2000/svg"
 width="1080.000000pt" height="506.000000pt" viewBox="0 0 1080.000000 506.000000"
 preserveAspectRatio="xMidYMid meet">
<metadata>
Created by potrace 1.16, written by Peter Selinger 2001-2019
</metadata>
<g transform="translate(0.000000,506.000000) scale(0.100000,-0.100000)"
fill="#000000" stroke="none">
<path d="M6289 3284 c-1 -5 -3 -28 -4 -52 -3 -45 -70 -180 -132 -265 -29 -39
-39 -46 -57 -41 -38 11 -40 10 -46 -34 -5 -32 -16 -53 -44 -80 l-38 -37 6 28
c11 47 -1 62 -79 108 -41 24 -75 47 -75 52 0 4 15 7 33 7 37 0 316 56 325 65
3 3 -10 21 -29 41 -23 24 -40 34 -54 30 -11 -2 -49 -13 -85 -24 -36 -10 -83
-22 -104 -26 l-39 -8 31 36 c40 46 63 91 57 109 -6 15 -87 57 -111 57 -13 0
-15 -7 -10 -34 5 -26 0 -46 -24 -90 -34 -66 -141 -209 -235 -313 -36 -40 -65
-77 -65 -83 0 -18 57 -10 86 12 16 11 63 55 105 95 l76 74 69 -71 c38 -40 77
-75 87 -79 16 -6 6 -19 -62 -84 -97 -90 -238 -198 -336 -255 -38 -22 -81 -49
-94 -60 -32 -25 -19 -46 24 -39 37 6 175 72 250 120 48 31 53 32 162 32 88 0
112 -3 108 -13 -2 -7 19 -60 47 -117 43 -87 57 -105 75 -105 28 0 43 27 43 76
0 32 -8 44 -65 100 l-64 63 42 5 c271 35 307 44 307 71 0 10 35 -10 93 -52 79
-57 99 -67 142 -71 57 -5 207 31 226 54 22 27 2 41 -68 49 -125 13 -209 49
-461 197 -146 86 -152 91 -136 109 9 10 14 27 11 38 -3 13 7 31 34 57 l38 37
101 -101 c56 -56 107 -102 114 -102 14 0 26 42 26 91 0 24 -9 35 -52 63 -29
18 -77 45 -106 60 -57 29 -60 46 -9 46 50 1 337 56 349 68 14 14 -4 44 -38 67
-26 17 -30 17 -73 2 -25 -9 -75 -23 -111 -32 -36 -9 -73 -18 -82 -21 -14 -4
-10 8 17 56 19 34 35 65 35 70 0 6 -43 24 -112 47 -10 3 -19 1 -19 -3z m-70
-601 c47 -36 89 -69 94 -73 4 -3 -14 -7 -40 -7 -27 0 -109 -11 -183 -26 -74
-14 -157 -28 -185 -32 l-50 -7 50 43 c28 24 79 72 115 106 42 40 73 63 89 63
13 0 58 -27 110 -67z"/>
<path d="M4271 3251 c-13 -8 -11 -18 12 -63 26 -50 27 -61 27 -194 l0 -141
-97 -16 c-54 -10 -114 -17 -134 -17 -22 0 -42 -7 -50 -16 -12 -14 -8 -21 26
-50 47 -39 48 -40 145 -14 106 28 106 28 74 -27 -55 -97 -158 -247 -225 -331
-72 -89 -87 -132 -48 -132 28 0 202 178 258 263 24 37 45 66 47 65 4 -5 -15
-327 -21 -363 -3 -16 -13 -60 -22 -96 l-16 -66 33 -47 c80 -111 109 -30 119
334 l6 235 33 -47 c19 -27 41 -48 51 -48 30 0 54 35 49 74 -3 26 0 34 12 33 8
0 77 10 152 23 76 13 141 20 145 16 18 -18 32 -391 17 -465 -6 -30 -8 -31 -58
-31 -48 0 -76 -12 -76 -32 0 -4 24 -23 53 -41 28 -19 61 -44 71 -56 26 -29 39
-27 74 13 52 60 56 85 49 361 -3 137 -9 258 -12 268 -7 15 1 17 80 17 48 0
139 -5 203 -12 115 -12 115 -12 133 11 27 33 35 71 18 82 -19 12 -260 11 -377
-2 -53 -5 -162 -21 -242 -34 -80 -14 -178 -28 -219 -31 -59 -6 -75 -11 -78
-25 -5 -16 -10 -15 -45 13 -36 30 -39 35 -36 77 l3 46 92 21 c125 30 129 33
94 73 -11 13 -22 28 -24 34 -3 9 -7 9 -18 0 -14 -11 -137 -39 -142 -32 -2 2 1
78 5 169 5 90 7 169 4 176 -2 6 -24 14 -48 17 -23 3 -52 8 -63 11 -11 4 -27 2
-34 -3z"/>
<path d="M5040 3084 c-63 -16 -308 -60 -392 -70 -77 -8 -77 -41 0 -63 32 -10
528 51 570 69 51 22 0 70 -82 76 -23 1 -66 -4 -96 -12z"/>
<path d="M5078 2508 c-8 -21 3 -42 69 -125 81 -102 147 -173 161 -173 17 0 42
43 49 84 5 34 2 40 -39 79 -39 37 -177 126 -219 142 -9 3 -19 0 -21 -7z"/>
<path d="M4636 2498 c-2 -7 -9 -33 -16 -57 -9 -34 -29 -61 -81 -113 -72 -70
-79 -89 -59 -142 13 -36 33 -32 85 15 68 62 169 224 149 237 -6 4 -16 17 -23
29 -15 30 -50 49 -55 31z"/>
<path d="M6286 2492 c-3 -5 -5 -27 -4 -51 0 -33 -14 -72 -66 -177 l-67 -134
-82 0 c-45 0 -136 -7 -202 -15 -65 -8 -157 -15 -202 -15 -102 0 -114 -13 -62
-66 l34 -34 105 14 c281 40 602 44 780 12 41 -7 79 -11 83 -9 17 10 58 86 53
99 -4 11 -44 14 -216 14 l-210 0 49 68 c57 77 131 215 131 241 0 13 -16 25
-56 40 -64 24 -61 24 -68 13z"/>
<path d="M5790 2375 c0 -20 42 -130 74 -193 22 -43 31 -53 49 -50 12 2 22 10
22 18 0 8 7 30 14 48 17 41 10 58 -59 135 -36 39 -59 57 -76 57 -14 0 -24 -6
-24 -15z"/>
</g>
</svg>
