<?xml version="1.0" standalone="no"?><!DOCTYPE svg PUBLIC "-//W3C//DTD SVG 1.1//EN" "http://www.w3.org/Graphics/SVG/1.1/DTD/svg11.dtd">
<svg t="1655573518817"
    class="icon"
    viewBox="0 0 1024 1024"
    version="1.1"
    xmlns="http://www.w3.org/2000/svg"
    p-id="3993"
    xmlns:xlink="http://www.w3.org/1999/xlink"
    width="200"
    height="200">
    <defs>
        <style type="text/css">@font-face { font-family: feedback-iconfont; src:
            url("//at.alicdn.com/t/font_1031158_u69w8yhxdu.woff2?t=1630033759944") format("woff2"),
            url("//at.alicdn.com/t/font_1031158_u69w8yhxdu.woff?t=1630033759944") format("woff"),
            url("//at.alicdn.com/t/font_1031158_u69w8yhxdu.ttf?t=1630033759944") format("truetype");
            }
        </style>
    </defs>
    <path
        d="M811.624 147.579c-53.97-11.143-51.681-67.463-91.587-85.233a539.104 539.104 0 0 0-180.314-39.152S435.848 17.47 381.997 11.749C359.861 9.64 320.076 0.907 320.076 0.907A61.922 61.922 0 0 0 303.42 0.304a59.09 59.09 0 0 0-50.357 49.393 433.06 433.06 0 0 0 2.048 119.567 74.872 74.872 0 0 1-12.047 45.778 529.467 529.467 0 0 0-66.981 114.146C150.875 391.23 310.408 494.533 413.65 563.2c94.057 64.753 87.34 212.33 87.34 212.33a704.75 704.75 0 0 0-220.55-178.598 390.143 390.143 0 0 1-179.29-164.442c-3.283-6.325-6.746-5.722-7.62 1.506 0 0-17.227 104.207 18.493 168.357 80.624 144.564 161.128 128.602 223.984 208.715a334.305 334.305 0 0 1 61.71 187.933S286.737 837.873 129.673 764.688c-104.056-69.873-84.931-143.36-97.189-115.953s30.389 219.256 74.36 253.289c91.588 70.776 107.038 115.952 107.038 115.952H413.41S549.18 857.15 581.466 755.351c50.477-158.418 45.688-217.75 45.688-217.75a15.059 15.059 0 0 1 17.047-15.058s52.826 5.12 75.745 10.842a285.846 285.846 0 0 1 62.946 29.816 6.264 6.264 0 0 0 9.879-3.614l39.153-116.856c1.475-4.518-0.723-6.325-4.94-4.518a147.817 147.817 0 0 1-100.231 14.156c-22.92-6.927-67.764-17.167-84.901-37.346a57.223 57.223 0 0 1 30.298-90.353c54.603-9.939 37.677 17.468 74.932 28.31 31.172 9.036 25.33-2.107 30.359 5.723a247.928 247.928 0 0 1 0.422 37.346c-0.241 6.927 3.855 9.035 9.035 4.216l47.616-41.562c19.757-12.65 35.087-0.602 54.844-13.252a147.968 147.968 0 0 0 33.641-49.995 21.233 21.233 0 0 0-9.818-28.31l-48.4-23.793c-4.216-1.807-3.854-3.614 0.844-3.614H936.1c4.668 0 5.753-2.71 2.41-6.024 0 0-73.066-74.691-127.066-86.136z m-232.327-19.275a4.638 4.638 0 0 1 3.795-7.83 251.994 251.994 0 0 1 91.016 7.529c28.31 8.734 62.283 27.105 53.247 38.851s-10.902 43.068-67.342 23.492a156.25 156.25 0 0 1-80.716-62.042zM410.64 69.876c3.343-3.313 2.29-6.024-2.44-6.024 0 0-66.258-0.3-86.768-0.3-33.34 0-23.582 63.848 4.457 63.848s84.751-57.524 84.751-57.524z m89.329 41.562s-68.759 56.019-54.904 118.663a127.518 127.518 0 0 0 67.794 78.607 64.24 64.24 0 0 1 37.707 45.477 134.686 134.686 0 0 0-46.622-121.373c-38.249-37.647-4.005-121.374-4.005-121.374zM346.73 224.078c1.204-2.109 1.716-1.807 1.355 0.602 0 0-8.614 21.685 26.022 99.69 30.81 69.57 99.387 78.305 134.896 112.036a201.065 201.065 0 0 1 60.838 140.65 228.532 228.532 0 0 0-97.762-90.052 468.298 468.298 0 0 1-145.257-97.581c-51.2-51.501 19.908-165.345 19.908-165.345zM498.703 1024H651.61s108.935-157.214 53.067-331.895a261.21 261.21 0 0 0-49.393-90.956c-6.023-7.228-10.12-5.722-9.607 3.615a659.755 659.755 0 0 1-22.107 221.062A546.875 546.875 0 0 1 498.733 1024z m206.365-5.12h119.657A461.13 461.13 0 0 0 843.58 870.4a268.498 268.498 0 0 0-54.934-151.19c-4.337-5.42-6.927-4.216-6.024 2.71 0 0 19.034 101.798-16.474 171.069-35.147 68.668-61.2 125.891-61.2 125.891z m213.353-165.948c-3.283-3.313-5.451-2.108-4.97 2.41a204.619 204.619 0 0 1-8.824 92.46 687.072 687.072 0 0 1-32.888 66.862h121.856a153.6 153.6 0 0 0-22.619-95.473 331.685 331.685 0 0 0-52.555-66.259z m0 0"
        p-id="3994"
        fill="#d81e06"></path>
</svg>